<?xml version="1.0" encoding="UTF-8" standalone="no"?>
<svg
   viewBox="0 0 32 32"
   version="1.1"
   id="svg4"
   sodipodi:docname="logo.svg"
   width="32"
   height="32"
   inkscape:version="1.2.2 (732a01da63, 2022-12-09)"
   xmlns:inkscape="http://www.inkscape.org/namespaces/inkscape"
   xmlns:sodipodi="http://sodipodi.sourceforge.net/DTD/sodipodi-0.dtd"
   xmlns="http://www.w3.org/2000/svg"
   xmlns:svg="http://www.w3.org/2000/svg">
  <defs
     id="defs8" />
  <sodipodi:namedview
     id="namedview6"
     pagecolor="#505050"
     bordercolor="#eeeeee"
     borderopacity="1"
     inkscape:showpageshadow="0"
     inkscape:pageopacity="0"
     inkscape:pagecheckerboard="0"
     inkscape:deskcolor="#505050"
     showgrid="false"
     inkscape:zoom="9.2476309"
     inkscape:cx="50.391285"
     inkscape:cy="24.654963"
     inkscape:window-width="1920"
     inkscape:window-height="1017"
     inkscape:window-x="-8"
     inkscape:window-y="-8"
     inkscape:window-maximized="1"
     inkscape:current-layer="svg4" />
  <!--! Font Awesome Pro 6.3.0 by @fontawesome - https://fontawesome.com License - https://fontawesome.com/license (Commercial License) Copyright 2023 Fonticons, Inc. -->
  <path
     d="M 1,9.333333 C 1,7.4947923 2.4947917,6 4.3333333,6 H 17.666666 C 19.505208,6 21,7.4947923 21,9.333333 V 22.666666 C 21,24.505208 19.505208,26 17.666666,26 H 4.3333333 C 2.4947917,26 1,24.505208 1,22.666666 Z M 30.119792,7.8645832 C 30.661458,8.15625 31,8.71875 31,9.333333 v 13.333333 c 0,0.614584 -0.338542,1.177084 -0.880208,1.468751 -0.541667,0.291666 -1.197917,0.260417 -1.713542,-0.08333 l -5,-3.333335 -0.739583,-0.494791 v -0.890627 -6.666667 -0.890625 l 0.739583,-0.494792 5,-3.3333336 c 0.510416,-0.3385419 1.166666,-0.375 1.713542,-0.083333 z"
     id="path2"
     style="stroke-width:0.0520833" />
</svg>
