<?xml version="1.0" encoding="UTF-8" standalone="no"?>
<!-- Created with Inkscape (http://www.inkscape.org/) -->

<svg
   version="1.1"
   id="svg2"
   width="32"
   height="32"
   viewBox="0 0 32 32"
   sodipodi:docname="Screenshot 2023-03-09 124602.svg"
   inkscape:version="1.2.2 (732a01da63, 2022-12-09)"
   xmlns:inkscape="http://www.inkscape.org/namespaces/inkscape"
   xmlns:sodipodi="http://sodipodi.sourceforge.net/DTD/sodipodi-0.dtd"
   xmlns="http://www.w3.org/2000/svg"
   xmlns:svg="http://www.w3.org/2000/svg">
  <defs
     id="defs6" />
  <sodipodi:namedview
     id="namedview4"
     pagecolor="#505050"
     bordercolor="#eeeeee"
     borderopacity="1"
     inkscape:showpageshadow="0"
     inkscape:pageopacity="0"
     inkscape:pagecheckerboard="0"
     inkscape:deskcolor="#505050"
     showgrid="false"
     inkscape:zoom="11.706294"
     inkscape:cx="18.494325"
     inkscape:cy="15.376344"
     inkscape:window-width="1920"
     inkscape:window-height="1017"
     inkscape:window-x="-8"
     inkscape:window-y="-8"
     inkscape:window-maximized="1"
     inkscape:current-layer="svg2" />
  <path
     style="display:inline;fill:#000000;stroke-width:0.310793"
     d="m 0.08843275,31.611743 c -0.0819,-0.213543 -0.112491,-7.376955 -0.06798,-15.918692 L 0.10137275,0.16262 15.650234,0.08131 31.199096,0 31.587817,0.528935 c 0.504704,0.686754 0.567997,29.934888 0.0668,30.870267 L 31.332701,32 H 15.785021 C 3.6336107,32 0.20481375,31.91519 0.08843675,31.611739 Z M 16.669456,29.342219 c 1.538295,-1.076187 0.179877,-3.823499 -1.457711,-2.948126 -1.413294,0.755475 -1.464279,2.305511 -0.101912,3.098293 0.714523,0.415793 0.756404,0.411761 1.559623,-0.150167 z M 28.793101,13.441139 28.874929,2.802793 H 15.809801 2.7446747 v 10.508925 c 0,5.779909 0.09483,10.603638 0.210723,10.719398 0.115897,0.11576 5.958382,0.173999 12.9832993,0.12942 l 12.772577,-0.08105 z m -16.097155,0.113375 c 0,-1.984248 0.06803,-3.607723 0.151178,-3.607723 0.260049,0 5.444823,3.162838 5.602499,3.417661 0.08233,0.13306 -0.863698,0.839697 -2.102291,1.570305 -1.238594,0.730607 -2.566853,1.530675 -2.951687,1.777928 l -0.699699,0.449551 z"
     id="path180"
     inkscape:label="path180" />
</svg>
