<?xml version="1.0" encoding="UTF-8" standalone="no"?>
<!-- Created with Inkscape (http://www.inkscape.org/) -->

<svg
   version="1.1"
   id="svg2"
   width="32"
   height="32"
   viewBox="0 0 32 32"
   sodipodi:docname="logo.svg"
   inkscape:version="1.2.2 (732a01da63, 2022-12-09)"
   xmlns:inkscape="http://www.inkscape.org/namespaces/inkscape"
   xmlns:sodipodi="http://sodipodi.sourceforge.net/DTD/sodipodi-0.dtd"
   xmlns="http://www.w3.org/2000/svg"
   xmlns:svg="http://www.w3.org/2000/svg">
  <defs
     id="defs6" />
  <sodipodi:namedview
     id="namedview4"
     pagecolor="#505050"
     bordercolor="#eeeeee"
     borderopacity="1"
     inkscape:showpageshadow="0"
     inkscape:pageopacity="0"
     inkscape:pagecheckerboard="0"
     inkscape:deskcolor="#505050"
     showgrid="false"
     inkscape:zoom="11.706294"
     inkscape:cx="18.579749"
     inkscape:cy="15.461768"
     inkscape:window-width="1920"
     inkscape:window-height="1017"
     inkscape:window-x="-8"
     inkscape:window-y="-8"
     inkscape:window-maximized="1"
     inkscape:current-layer="svg2" />
  <path
     style="display:inline;fill:#000000;stroke-width:0.271944"
     d="M 2.0773787,29.660275 C 2.0057162,29.473425 1.978949,23.205439 2.0178962,15.73142 L 2.0887012,2.1422925 15.693953,2.0711463 29.299206,2 29.639337,2.4628181 c 0.441616,0.6009098 0.496998,26.1930269 0.05845,27.0114839 L 29.416111,30 H 15.811892 C 5.1794091,30 2.179212,29.925791 2.0773822,29.660272 Z M 16.585773,27.674442 c 1.346008,-0.941664 0.157392,-3.345562 -1.275497,-2.579611 -1.236633,0.661041 -1.281244,2.017323 -0.08917,2.711007 0.625207,0.363819 0.661853,0.360291 1.36467,-0.131396 z M 27.193961,13.760997 27.26556,4.4524439 H 15.833575 4.4015901 v 9.1953091 c 0,5.057421 0.082976,9.278183 0.1843826,9.379473 0.1014099,0.10129 5.2135838,0.15225 11.3603863,0.113243 l 11.176003,-0.07092 z m -14.085009,0.0992 c 0,-1.736217 0.05953,-3.156758 0.13228,-3.156758 0.227543,0 4.76422,2.767483 4.902187,2.990454 0.07204,0.116427 -0.755736,0.734734 -1.839505,1.374016 -1.08377,0.639282 -2.245996,1.339341 -2.582726,1.555687 l -0.612236,0.393357 z"
     id="path180"
     inkscape:label="path180" />
</svg>
