<?xml version="1.0" encoding="UTF-8" standalone="no"?>
<svg
   viewBox="0 0 32 32"
   version="1.1"
   id="svg4"
   sodipodi:docname="pin_hover.svg"
   width="32"
   height="32"
   inkscape:version="1.2.2 (732a01da63, 2022-12-09)"
   xmlns:inkscape="http://www.inkscape.org/namespaces/inkscape"
   xmlns:sodipodi="http://sodipodi.sourceforge.net/DTD/sodipodi-0.dtd"
   xmlns="http://www.w3.org/2000/svg"
   xmlns:svg="http://www.w3.org/2000/svg">
  <defs
     id="defs8" />
  <sodipodi:namedview
     id="namedview6"
     pagecolor="#505050"
     bordercolor="#eeeeee"
     borderopacity="1"
     inkscape:showpageshadow="0"
     inkscape:pageopacity="0"
     inkscape:pagecheckerboard="0"
     inkscape:deskcolor="#505050"
     showgrid="false"
     inkscape:zoom="6.5390625"
     inkscape:cx="9.6344086"
     inkscape:cy="22.939068"
     inkscape:window-width="1920"
     inkscape:window-height="1017"
     inkscape:window-x="-8"
     inkscape:window-y="-8"
     inkscape:window-maximized="1"
     inkscape:current-layer="svg4" />
  <!--! Font Awesome Pro 6.3.0 by @fontawesome - https://fontawesome.com License - https://fontawesome.com/license (Commercial License) Copyright 2023 Fonticons, Inc. -->
  <path
     d="M 6.8373779,3.832657 C 6.8373779,2.8189685 7.656346,2 8.6700355,2 H 23.331291 c 1.013689,0 1.832657,0.8189685 1.832657,1.832657 0,1.0136884 -0.818968,1.8326568 -1.832657,1.8326568 h -1.68948 l 0.652884,8.4874932 c 2.101829,1.139682 3.762672,3.046791 4.553007,5.423519 l 0.05725,0.171811 c 0.188991,0.561251 0.09163,1.174047 -0.251991,1.64939 -0.343622,0.475346 -0.899147,0.761699 -1.489033,0.761699 H 6.8373779 c -0.5898865,0 -1.1396835,-0.280625 -1.4890337,-0.761699 -0.3493504,-0.481071 -0.440983,-1.093866 -0.2519903,-1.64939 l 0.05727,-0.171811 C 5.943958,17.199598 7.6048028,15.292489 9.706632,14.152807 L 10.359517,5.6653138 H 8.6700355 c -1.0136891,0 -1.8326573,-0.8189684 -1.8326576,-1.8326568 z m 7.3306281,20.159226 h 3.665315 v 5.49797 c 0,1.013689 -0.818969,1.832658 -1.832658,1.832658 -1.01369,0 -1.832657,-0.818969 -1.832657,-1.832658 z"
     id="path2"
     style="fill:#d40000;stroke-width:0.0572705" />
</svg>
