<?xml version="1.0" encoding="UTF-8" standalone="no"?>
<svg
   viewBox="0 0 24 24"
   version="1.1"
   id="svg4"
   sodipodi:docname="refresh.svg"
   width="24"
   height="24"
   inkscape:version="1.2.2 (732a01da63, 2022-12-09)"
   xmlns:inkscape="http://www.inkscape.org/namespaces/inkscape"
   xmlns:sodipodi="http://sodipodi.sourceforge.net/DTD/sodipodi-0.dtd"
   xmlns="http://www.w3.org/2000/svg"
   xmlns:svg="http://www.w3.org/2000/svg">
  <defs
     id="defs8" />
  <sodipodi:namedview
     id="namedview6"
     pagecolor="#505050"
     bordercolor="#eeeeee"
     borderopacity="1"
     inkscape:showpageshadow="0"
     inkscape:pageopacity="0"
     inkscape:pagecheckerboard="0"
     inkscape:deskcolor="#505050"
     showgrid="false"
     inkscape:zoom="18.495262"
     inkscape:cx="21.032414"
     inkscape:cy="16.058167"
     inkscape:window-width="1920"
     inkscape:window-height="1017"
     inkscape:window-x="-8"
     inkscape:window-y="-8"
     inkscape:window-maximized="1"
     inkscape:current-layer="svg4" />
  <!--! Font Awesome Pro 6.3.0 by @fontawesome - https://fontawesome.com License - https://fontawesome.com/license (Commercial License) Copyright 2023 Fonticons, Inc. -->
  <path
     d="m 6.3419462,9.3997705 c 0.2888101,-0.81767 0.7576579,-1.586581 1.4177954,-2.242967 2.3442384,-2.344239 6.1437804,-2.344239 8.4880184,0 l 0.641384,0.645134 h -1.886643 c -0.663889,0 -1.20025,0.536362 -1.20025,1.200249 0,0.66389 0.536361,1.2002515 1.20025,1.2002515 h 4.782245 c 0,0 0,0 0,0 h 0.015 C 20.463638,10.202438 21,9.6660765 21,9.0021865 v -4.800999 c 0,-0.663889 -0.536362,-1.20025 -1.20025,-1.20025 -0.663889,0 -1.20025,0.536361 -1.20025,1.20025 v 1.9204 l -0.656387,-0.660137 c -3.281934,-3.281934 -8.6005417,-3.281934 -11.8824754,0 -0.9151906,0.91519 -1.5753282,1.991664 -1.9804125,3.143154 -0.2212962,0.626381 0.1087726,1.309022 0.7314023,1.5303195 0.6226298,0.221296 1.3090227,-0.108772 1.5303188,-0.7314025 z M 3.8626797,12.651697 c -0.187539,0.05627 -0.3675765,0.157533 -0.513857,0.307564 -0.1500313,0.150031 -0.2513024,0.330069 -0.3038133,0.52511 -0.011252,0.04501 -0.022505,0.09377 -0.030006,0.142529 C 3.0037508,13.690664 3,13.754427 3,13.81819 v 4.785997 c 0,0.663889 0.5363617,1.20025 1.2002501,1.20025 0.6638882,0 1.20025,-0.536361 1.20025,-1.20025 v -1.916649 l 0.6601375,0.656387 v 0 c 3.2819337,3.278183 8.6005414,3.278183 11.8787254,0 0.91519,-0.915191 1.579078,-1.991664 1.984163,-3.139404 0.221296,-0.62638 -0.108773,-1.309022 -0.731403,-1.530318 -0.622629,-0.221297 -1.309023,0.108772 -1.530318,0.731402 -0.288811,0.817671 -0.757658,1.586581 -1.417796,2.242967 -2.344238,2.344239 -6.14378,2.344239 -8.4880181,0 l -0.00375,-0.0038 -0.6413837,-0.641383 h 1.890393 c 0.6638884,0 1.2002498,-0.536361 1.2002498,-1.20025 0,-0.663889 -0.5363614,-1.20025 -1.2002498,-1.20025 h -4.785994 c -0.060013,0 -0.120025,0.0038 -0.1800375,0.01125 -0.060013,0.0075 -0.1162742,0.01876 -0.172536,0.0375 z"
     id="path2"
     style="stroke-width:0.0375078;fill:#808080" />
</svg>
