<?xml version="1.0" encoding="UTF-8" standalone="no"?>
<svg
   viewBox="0 0 24 24"
   version="1.1"
   id="svg4"
   sodipodi:docname="refresh_hover.svg"
   width="24"
   height="24"
   inkscape:version="1.2.2 (732a01da63, 2022-12-09)"
   xmlns:inkscape="http://www.inkscape.org/namespaces/inkscape"
   xmlns:sodipodi="http://sodipodi.sourceforge.net/DTD/sodipodi-0.dtd"
   xmlns="http://www.w3.org/2000/svg"
   xmlns:svg="http://www.w3.org/2000/svg">
  <defs
     id="defs8" />
  <sodipodi:namedview
     id="namedview6"
     pagecolor="#505050"
     bordercolor="#eeeeee"
     borderopacity="1"
     inkscape:showpageshadow="0"
     inkscape:pageopacity="0"
     inkscape:pagecheckerboard="0"
     inkscape:deskcolor="#505050"
     showgrid="false"
     inkscape:zoom="18.495262"
     inkscape:cx="21.032414"
     inkscape:cy="16.058167"
     inkscape:window-width="1920"
     inkscape:window-height="1017"
     inkscape:window-x="-8"
     inkscape:window-y="-8"
     inkscape:window-maximized="1"
     inkscape:current-layer="svg4" />
  <!--! Font Awesome Pro 6.3.0 by @fontawesome - https://fontawesome.com License - https://fontawesome.com/license (Commercial License) Copyright 2023 Fonticons, Inc. -->
  <path
     d="M 5.7132736,9.110856 C 6.0341737,8.2023339 6.5551157,7.3479883 7.2886018,6.6186706 c 2.6047092,-2.60471 6.8264222,-2.60471 9.4311312,0 l 0.712649,0.7168155 h -2.09627 c -0.737654,0 -1.333611,0.5959578 -1.333611,1.33361 0,0.7376559 0.595957,1.3336129 1.333611,1.3336129 h 5.313606 c 0,0 0,0 0,0 h 0.01667 C 21.404042,10.002709 22,9.406752 22,8.6690961 V 3.3346528 c 0,-0.7376545 -0.595958,-1.3336111 -1.333611,-1.3336111 -0.737655,0 -1.333611,0.5959566 -1.333611,1.3336111 V 5.4684306 L 18.603459,4.734945 C 14.956866,1.0883517 9.047301,1.0883517 5.4007084,4.734945 4.38383,5.7518228 3.6503438,6.947905 3.2002501,8.2273383 2.9543654,8.9233172 3.3211086,9.681807 4.0129193,9.927693 4.7047302,10.173578 5.467389,9.806836 5.7132736,9.115024 Z M 2.958533,12.724108 c -0.2083767,0.06252 -0.4084183,0.175036 -0.5709522,0.341738 -0.1667015,0.166701 -0.2792249,0.366743 -0.3375704,0.583455 -0.012502,0.05001 -0.025006,0.104189 -0.03334,0.158366 C 2.0041676,13.878516 2,13.949363 2,14.020211 v 5.317775 c 0,0.737654 0.5959574,1.333611 1.3336112,1.333611 0.7376536,0 1.3336111,-0.595957 1.3336111,-1.333611 v -2.12961 l 0.7334861,0.729318 v 0 c 3.6465926,3.642426 9.5561576,3.642426 13.1985836,0 1.016878,-1.016878 1.754531,-2.21296 2.204626,-3.488226 0.245884,-0.695978 -0.120859,-1.454469 -0.81267,-1.700354 -0.69181,-0.245885 -1.45447,0.120858 -1.700354,0.812669 -0.320901,0.908524 -0.841842,1.762868 -1.575328,2.492186 -2.604709,2.60471 -6.826423,2.60471 -9.4311317,0 l -0.00417,-0.0042 -0.7126486,-0.712648 h 2.1004367 c 0.7376546,0 1.3336116,-0.595957 1.3336116,-1.333611 0,-0.737655 -0.595957,-1.333611 -1.3336116,-1.333611 H 3.3502847 c -0.066681,0 -0.1333611,0.0042 -0.2000417,0.0125 -0.066681,0.0083 -0.1291936,0.02084 -0.1917067,0.04167 z"
     id="path2"
     style="fill:#008080;stroke-width:0.0416753" />
</svg>
