<?xml version="1.0" encoding="UTF-8" standalone="no"?>
<svg
   viewBox="0 0 32 32"
   version="1.1"
   id="svg4"
   sodipodi:docname="settings_hover.svg"
   inkscape:version="1.2.2 (732a01da63, 2022-12-09)"
   width="32"
   height="32"
   xmlns:inkscape="http://www.inkscape.org/namespaces/inkscape"
   xmlns:sodipodi="http://sodipodi.sourceforge.net/DTD/sodipodi-0.dtd"
   xmlns="http://www.w3.org/2000/svg"
   xmlns:svg="http://www.w3.org/2000/svg">
  <defs
     id="defs8" />
  <sodipodi:namedview
     id="namedview6"
     pagecolor="#505050"
     bordercolor="#eeeeee"
     borderopacity="1"
     inkscape:showpageshadow="0"
     inkscape:pageopacity="0"
     inkscape:pagecheckerboard="0"
     inkscape:deskcolor="#505050"
     showgrid="false"
     inkscape:zoom="9.2476307"
     inkscape:cx="29.953618"
     inkscape:cy="19.464445"
     inkscape:window-width="1920"
     inkscape:window-height="1017"
     inkscape:window-x="-8"
     inkscape:window-y="-8"
     inkscape:window-maximized="1"
     inkscape:current-layer="svg4" />
  <!--! Font Awesome Pro 6.3.0 by @fontawesome - https://fontawesome.com License - https://fontawesome.com/license (Commercial License) Copyright 2023 Fonticons, Inc. -->
  <path
     d="M 2,6.895833 C 2,5.8472008 2.89375,5 4,5 h 24 c 1.10625,0 2,0.8472008 2,1.895833 0,1.0486332 -0.89375,1.8958341 -2,1.8958341 H 4 c -1.10625,0 -2,-0.8472009 -2,-1.8958341 z m 0,9.479168 c 0,-1.048633 0.89375,-1.895834 2,-1.895834 h 24 c 1.10625,0 2,0.8472 2,1.895834 0,1.048632 -0.89375,1.895832 -2,1.895832 H 4 c -1.10625,0 -2,-0.8472 -2,-1.895832 z m 28,9.479166 C 30,26.9028 29.10625,27.75 28,27.75 H 4 c -1.10625,0 -2,-0.8472 -2,-1.895833 0,-1.048634 0.89375,-1.895833 2,-1.895833 h 24 c 1.10625,0 2,0.847199 2,1.895833 z"
     id="path2"
     style="fill:#008080;stroke-width:0.0608507" />
</svg>
