<?xml version="1.0" encoding="UTF-8" standalone="no"?>
<svg
   viewBox="0 0 32 32"
   version="1.1"
   id="svg4"
   sodipodi:docname="settings.svg"
   inkscape:version="1.2.2 (732a01da63, 2022-12-09)"
   width="32"
   height="32"
   xmlns:inkscape="http://www.inkscape.org/namespaces/inkscape"
   xmlns:sodipodi="http://sodipodi.sourceforge.net/DTD/sodipodi-0.dtd"
   xmlns="http://www.w3.org/2000/svg"
   xmlns:svg="http://www.w3.org/2000/svg">
  <defs
     id="defs8" />
  <sodipodi:namedview
     id="namedview6"
     pagecolor="#505050"
     bordercolor="#eeeeee"
     borderopacity="1"
     inkscape:showpageshadow="0"
     inkscape:pageopacity="0"
     inkscape:pagecheckerboard="0"
     inkscape:deskcolor="#505050"
     showgrid="false"
     inkscape:zoom="9.2476307"
     inkscape:cx="29.953618"
     inkscape:cy="19.464445"
     inkscape:window-width="1920"
     inkscape:window-height="1017"
     inkscape:window-x="-8"
     inkscape:window-y="-8"
     inkscape:window-maximized="1"
     inkscape:current-layer="svg4" />
  <!--! Font Awesome Pro 6.3.0 by @fontawesome - https://fontawesome.com License - https://fontawesome.com/license (Commercial License) Copyright 2023 Fonticons, Inc. -->
  <path
     d="M 3,6.7604164 C 3,5.7866865 3.8299107,5 4.8571429,5 H 27.142857 C 28.170089,5 29,5.7866865 29,6.7604164 29,7.7341472 28.170089,8.5208337 27.142857,8.5208337 H 4.8571429 C 3.8299107,8.5208337 3,7.7341472 3,6.7604164 Z M 3,15.562501 C 3,14.58877 3.8299107,13.802084 4.8571429,13.802084 H 27.142857 c 1.027232,0 1.857143,0.786685 1.857143,1.760417 0,0.97373 -0.829911,1.760415 -1.857143,1.760415 H 4.8571429 C 3.8299107,17.322916 3,16.536231 3,15.562501 Z m 26,8.802083 C 29,25.338314 28.170089,26.125 27.142857,26.125 H 4.8571429 C 3.8299107,26.125 3,25.338314 3,24.364584 3,23.390852 3.8299107,22.604167 4.8571429,22.604167 H 27.142857 C 28.170089,22.604167 29,23.390852 29,24.364584 Z"
     id="path2"
     style="fill:#808080;stroke-width:0.0565042" />
</svg>
