<?xml version="1.0" encoding="UTF-8" standalone="no"?>
<svg
   viewBox="0 0 96 96"
   version="1.1"
   id="svg4"
   sodipodi:docname="start.svg"
   width="96"
   height="96"
   inkscape:version="1.2.2 (732a01da63, 2022-12-09)"
   xmlns:inkscape="http://www.inkscape.org/namespaces/inkscape"
   xmlns:sodipodi="http://sodipodi.sourceforge.net/DTD/sodipodi-0.dtd"
   xmlns:xlink="http://www.w3.org/1999/xlink"
   xmlns="http://www.w3.org/2000/svg"
   xmlns:svg="http://www.w3.org/2000/svg">
  <defs
     id="defs8">
    <linearGradient
       inkscape:collect="always"
       id="linearGradient1074">
      <stop
         style="stop-color:#aa008c;stop-opacity:1;"
         offset="0"
         id="stop1070" />
      <stop
         style="stop-color:#b12c55;stop-opacity:0.91228068;"
         offset="0.71431887"
         id="stop1080" />
      <stop
         style="stop-color:#b5422b;stop-opacity:0.97647059;"
         offset="0.83624774"
         id="stop1082" />
      <stop
         style="stop-color:#b95849;stop-opacity:0.97254908;"
         offset="0.91869038"
         id="stop1078" />
    </linearGradient>
    <linearGradient
       inkscape:collect="always"
       xlink:href="#linearGradient1074"
       id="linearGradient1076"
       x1="18.923765"
       y1="18.05868"
       x2="43.146187"
       y2="42.821777"
       gradientUnits="userSpaceOnUse"
       gradientTransform="scale(2)" />
  </defs>
  <sodipodi:namedview
     id="namedview6"
     pagecolor="#505050"
     bordercolor="#eeeeee"
     borderopacity="1"
     inkscape:showpageshadow="0"
     inkscape:pageopacity="0"
     inkscape:pagecheckerboard="0"
     inkscape:deskcolor="#505050"
     showgrid="false"
     inkscape:zoom="4.6238154"
     inkscape:cx="-3.6766174"
     inkscape:cy="8.2183212"
     inkscape:window-width="1920"
     inkscape:window-height="1017"
     inkscape:window-x="-8"
     inkscape:window-y="-8"
     inkscape:window-maximized="1"
     inkscape:current-layer="svg4" />
  <!--! Font Awesome Pro 6.3.0 by @fontawesome - https://fontawesome.com License - https://fontawesome.com/license (Commercial License) Copyright 2023 Fonticons, Inc. -->
  <path
     d="M 4,48 A 44,44 0 1 1 92,48 44,44 0 1 1 4,48 Z M 48,31.5 a 16.5,16.5 0 1 1 0,33 16.5,16.5 0 1 1 0,-33 z M 48,70 a 22,22 0 1 0 0,-44 22,22 0 1 0 0,44 z m 0,-16.5 a 5.5,5.5 0 1 0 0,-11 5.5,5.5 0 1 0 0,11 z"
     id="path2"
     style="fill:url(#linearGradient1076);fill-opacity:1;stroke-width:0.171875" />
</svg>
