<?xml version="1.0" encoding="UTF-8" standalone="no"?>
<svg
   viewBox="0 0 96 96"
   version="1.1"
   id="svg4"
   sodipodi:docname="start_hover.svg"
   width="96"
   height="96"
   inkscape:version="1.2.2 (732a01da63, 2022-12-09)"
   xmlns:inkscape="http://www.inkscape.org/namespaces/inkscape"
   xmlns:sodipodi="http://sodipodi.sourceforge.net/DTD/sodipodi-0.dtd"
   xmlns:xlink="http://www.w3.org/1999/xlink"
   xmlns="http://www.w3.org/2000/svg"
   xmlns:svg="http://www.w3.org/2000/svg">
  <defs
     id="defs8">
    <linearGradient
       inkscape:collect="always"
       id="linearGradient1074">
      <stop
         style="stop-color:#aa008c;stop-opacity:1;"
         offset="0"
         id="stop1070" />
      <stop
         style="stop-color:#b12c55;stop-opacity:0.91228068;"
         offset="0.20326255"
         id="stop1080" />
      <stop
         style="stop-color:#b5a244;stop-opacity:0.94006312;"
         offset="0.53432608"
         id="stop1082" />
      <stop
         style="stop-color:#b95849;stop-opacity:0.97254908;"
         offset="0.79703563"
         id="stop1078" />
    </linearGradient>
    <linearGradient
       inkscape:collect="always"
       xlink:href="#linearGradient1074"
       id="linearGradient1076"
       x1="8.7589998"
       y1="8.4345932"
       x2="37.739395"
       y2="38.496346"
       gradientUnits="userSpaceOnUse"
       gradientTransform="matrix(2.1818182,0,0,2.1818182,-4.3636364,-4.3636364)" />
  </defs>
  <sodipodi:namedview
     id="namedview6"
     pagecolor="#505050"
     bordercolor="#eeeeee"
     borderopacity="1"
     inkscape:showpageshadow="0"
     inkscape:pageopacity="0"
     inkscape:pagecheckerboard="0"
     inkscape:deskcolor="#505050"
     showgrid="false"
     inkscape:zoom="4.6238154"
     inkscape:cx="-16.004099"
     inkscape:cy="8.4345928"
     inkscape:window-width="1920"
     inkscape:window-height="1017"
     inkscape:window-x="-8"
     inkscape:window-y="-8"
     inkscape:window-maximized="1"
     inkscape:current-layer="svg4" />
  <!--! Font Awesome Pro 6.3.0 by @fontawesome - https://fontawesome.com License - https://fontawesome.com/license (Commercial License) Copyright 2023 Fonticons, Inc. -->
  <path
     d="M 0,48 A 48,48 0 1 1 96,48 48,48 0 1 1 0,48 Z M 48,30 a 18,18 0 1 1 0,36 18,18 0 1 1 0,-36 z m 0,42 a 24,24 0 1 0 0,-48 24,24 0 1 0 0,48 z m 0,-18 a 6,6 0 1 0 0,-12 6,6 0 1 0 0,12 z"
     id="path2"
     style="fill:url(#linearGradient1076);fill-opacity:1;stroke-width:0.1875" />
</svg>
