<?xml version="1.0" encoding="UTF-8" standalone="no"?>
<svg
   viewBox="0 0 32 32"
   version="1.1"
   id="svg4"
   sodipodi:docname="tray_hover.svg"
   inkscape:version="1.2.2 (732a01da63, 2022-12-09)"
   width="32"
   height="32"
   xmlns:inkscape="http://www.inkscape.org/namespaces/inkscape"
   xmlns:sodipodi="http://sodipodi.sourceforge.net/DTD/sodipodi-0.dtd"
   xmlns="http://www.w3.org/2000/svg"
   xmlns:svg="http://www.w3.org/2000/svg">
  <defs
     id="defs8" />
  <sodipodi:namedview
     id="namedview6"
     pagecolor="#505050"
     bordercolor="#eeeeee"
     borderopacity="1"
     inkscape:showpageshadow="0"
     inkscape:pageopacity="0"
     inkscape:pagecheckerboard="0"
     inkscape:deskcolor="#505050"
     showgrid="false"
     inkscape:zoom="9.2476307"
     inkscape:cx="16.652914"
     inkscape:cy="21.086482"
     inkscape:window-width="1920"
     inkscape:window-height="1017"
     inkscape:window-x="-8"
     inkscape:window-y="-8"
     inkscape:window-maximized="1"
     inkscape:current-layer="svg4" />
  <!--! Font Awesome Pro 6.3.0 by @fontawesome - https://fontawesome.com License - https://fontawesome.com/license (Commercial License) Copyright 2023 Fonticons, Inc. -->
  <path
     d="M 25.625,5.5 H 13.375 C 12.89375,5.5 12.5,5.89375 12.5,6.375 V 7.25 H 9 V 6.375 C 9,3.9578125 10.957812,2 13.375,2 h 12.25 C 28.042187,2 30,3.9578125 30,6.375 v 12.25 C 30,21.042187 28.042187,23 25.625,23 H 24.75 v -3.5 h 0.875 c 0.48125,0 0.875,-0.39375 0.875,-0.875 V 6.375 C 26.5,5.89375 26.10625,5.5 25.625,5.5 Z M 2,12.5 C 2,10.569531 3.5695312,9 5.5,9 h 14 c 1.930469,0 3.5,1.569531 3.5,3.5 v 14 C 23,28.430469 21.430469,30 19.5,30 H 5.5 C 3.5695312,30 2,28.430469 2,26.5 Z m 3.5,1.75 C 5.5,15.217969 6.2820312,16 7.25,16 h 10.5 c 0.967969,0 1.75,-0.782031 1.75,-1.75 0,-0.967969 -0.782031,-1.75 -1.75,-1.75 H 7.25 c -0.9679688,0 -1.75,0.782031 -1.75,1.75 z"
     id="path2"
     style="fill:#008080;stroke-width:0.0546875" />
</svg>
