<?xml version="1.0" encoding="UTF-8" standalone="no"?>
<svg
   viewBox="0 0 32 32"
   version="1.1"
   id="svg4"
   sodipodi:docname="tray.svg"
   inkscape:version="1.2.2 (732a01da63, 2022-12-09)"
   width="32"
   height="32"
   xmlns:inkscape="http://www.inkscape.org/namespaces/inkscape"
   xmlns:sodipodi="http://sodipodi.sourceforge.net/DTD/sodipodi-0.dtd"
   xmlns="http://www.w3.org/2000/svg"
   xmlns:svg="http://www.w3.org/2000/svg">
  <defs
     id="defs8" />
  <sodipodi:namedview
     id="namedview6"
     pagecolor="#505050"
     bordercolor="#eeeeee"
     borderopacity="1"
     inkscape:showpageshadow="0"
     inkscape:pageopacity="0"
     inkscape:pagecheckerboard="0"
     inkscape:deskcolor="#505050"
     showgrid="false"
     inkscape:zoom="9.2476307"
     inkscape:cx="16.652914"
     inkscape:cy="21.086482"
     inkscape:window-width="1920"
     inkscape:window-height="1017"
     inkscape:window-x="-8"
     inkscape:window-y="-8"
     inkscape:window-maximized="1"
     inkscape:current-layer="svg4" />
  <!--! Font Awesome Pro 6.3.0 by @fontawesome - https://fontawesome.com License - https://fontawesome.com/license (Commercial License) Copyright 2023 Fonticons, Inc. -->
  <path
     d="M 24.9375,6.25 H 13.5625 C 13.115625,6.25 12.75,6.615625 12.75,7.0625 V 7.875 H 9.5 V 7.0625 C 9.5,4.8179687 11.317969,3 13.5625,3 h 11.375 C 27.182031,3 29,4.8179687 29,7.0625 v 11.375 C 29,20.682031 27.182031,22.5 24.9375,22.5 H 24.125 v -3.25 h 0.8125 c 0.446875,0 0.8125,-0.365625 0.8125,-0.8125 V 7.0625 C 25.75,6.615625 25.384375,6.25 24.9375,6.25 Z M 3,12.75 C 3,10.957422 4.4574218,9.5 6.25,9.5 h 13 c 1.792577,0 3.25,1.457422 3.25,3.25 v 13 c 0,1.792577 -1.457423,3.25 -3.25,3.25 h -13 C 4.4574218,29 3,27.542577 3,25.75 Z m 3.25,1.625 C 6.25,15.273828 6.9761718,16 7.875,16 h 9.75 c 0.898828,0 1.625,-0.726172 1.625,-1.625 0,-0.898828 -0.726172,-1.625 -1.625,-1.625 h -9.75 c -0.8988282,0 -1.625,0.726172 -1.625,1.625 z"
     id="path2"
     style="fill:#808080;stroke-width:0.0507813" />
</svg>
